<svg xmlns="http://www.w3.org/2000/svg" viewBox="-33.4 0 459 57.7" height="57.7" width="459"><path fill="#47a4a5" d="M-.6 17.1c-1.8-1.5-3.7-2.6-5.6-3.1-1.9-.5-3.7-.8-5.5-.8-1.1 0-2.1.2-3.2.5s-2 .8-2.9 1.5c-.9.7-1.6 1.5-2.1 2.6-.6 1.1-.8 2.4-.8 4v15.6c0 1.6.3 2.9.8 4 .6 1.1 1.3 2 2.2 2.6.9.7 1.9 1.2 2.9 1.5 1.1.3 2.1.5 3.2.5 1.7 0 3.5-.3 5.3-.8 1.8-.5 3.7-1.5 5.8-3.1l6 9.9c-2.2 1.9-4.9 3.3-7.9 4.2-3 .9-6.1 1.4-9.4 1.4-2.6 0-5.1-.3-7.7-1-2.6-.7-4.9-1.8-7-3.2-2.1-1.4-3.7-3.3-5-5.5-1.3-2.2-1.9-4.8-1.9-7.9V19.5c0-3 .6-5.7 1.9-7.9 1.3-2.2 2.9-4.1 4.9-5.5 2-1.5 4.3-2.6 6.8-3.3 2.6-.7 5.2-1.1 7.8-1.1 3.3 0 6.5.5 9.6 1.4 3.1.9 5.8 2.3 8 4.2zm48.4 25.2c0 2.5-.4 4.7-1.3 6.6-.9 1.9-2.1 3.5-3.6 4.8-1.6 1.3-3.5 2.3-5.7 2.9-2.2.7-4.6 1-7.2 1-5.6 0-9.9-1.3-13.1-3.9-3.2-2.6-4.8-6.4-4.8-11.5v-9.9c0-2.5.5-4.7 1.4-6.6.9-1.9 2.2-3.5 3.8-4.8 1.6-1.3 3.5-2.3 5.7-2.9 2.2-.7 4.5-1 6.9-1 5.5 0 9.8 1.3 13 4 3.2 2.7 4.8 6.5 4.8 11.6v9.7zm-11.9-9.1c0-2.1-.6-3.5-1.9-4.4-1.3-.9-2.6-1.3-4.1-1.3-1.5 0-2.9.4-4.1 1.3-1.3.9-1.9 2.3-1.9 4.4v8.3c0 2.1.6 3.5 1.9 4.4 1.3.9 2.6 1.3 4.1 1.3 1.4 0 2.8-.4 4.1-1.3 1.3-.9 1.9-2.3 1.9-4.4zM101 57.3V33.1c0-1.9-.4-3.1-1.2-3.8-.8-.7-1.6-1-2.5-1-1.1 0-2.1.2-3.1.6-1 .4-2.3 1.2-4 2.4v26H78.4V33.1c0-1.9-.4-3.1-1.2-3.8-.8-.7-1.6-1-2.5-1-1.1 0-2.1.2-3.1.6-1 .4-2.3 1.2-4 2.4v26H55.8V17.6h10.6l.8 3.1c1.3-.9 2.5-1.5 3.6-2s2-.8 2.9-1.1c.9-.2 1.7-.4 2.4-.5.7-.1 1.4-.1 2-.1 2.4 0 4.5.5 6.1 1.4 1.6.9 2.9 2.1 3.8 3.7 1.7-1.2 3.2-2.1 4.5-2.8 1.3-.7 2.4-1.2 3.4-1.5 1-.3 1.9-.6 2.7-.6.8-.1 1.5-.1 2.1-.1 2.3 0 4.2.4 5.8 1.2 1.6.8 2.8 1.9 3.8 3.2 1 1.4 1.6 3 2 4.8.4 1.8.6 3.8.6 6v25zm56-14.2c0 5-1.2 8.6-3.6 11-2.4 2.4-5.8 3.6-10 3.6-1.4 0-3-.3-5-.9-1.9-.6-3.8-1.4-5.5-2.4l-.8 3h-10.6V0h11.8v20.3c2.2-1.3 4.2-2.2 6.1-2.6 1.9-.5 3.5-.7 4.8-.7 2.3 0 4.3.3 5.9 1 1.6.7 3 1.7 4 3s1.8 2.8 2.2 4.6c.5 1.8.7 3.7.7 5.8zm-11.8-10c0-1.9-.4-3.1-1.2-3.8-.8-.7-1.7-1-2.8-1-1.1 0-2.3.3-3.7.8-1.4.6-2.8 1.3-4.2 2.2v13.1c.4.3 1 .5 1.6.8.7.3 1.4.5 2.1.8.7.2 1.5.4 2.2.6.7.2 1.4.2 1.9.2 1.1 0 2-.4 2.8-1.2.8-.8 1.2-2 1.2-3.7v-8.8zM166 7.5c0-1.8.6-3.3 1.9-4.6 1.3-1.3 2.8-1.9 4.6-1.9 1.8 0 3.4.6 4.6 1.9 1.3 1.3 1.9 2.8 1.9 4.6 0 1.9-.6 3.4-1.9 4.7-1.3 1.3-2.8 1.9-4.6 1.9-1.8 0-3.3-.6-4.6-1.9-1.3-1.3-1.9-2.9-1.9-4.7zm.6 49.8V17.6h11.9v39.7zm46.2 0V33.1c0-1.9-.4-3.1-1.3-3.8-.9-.7-1.9-1-3-1s-2.2.2-3.3.6c-1.1.4-2.7 1.2-4.6 2.4v26h-11.8V17.6h10.6l.8 3.1c2.7-1.7 5.1-2.7 7.2-3.1 2.1-.4 3.8-.6 5.2-.6 2.3 0 4.2.3 5.8 1 1.6.7 2.8 1.7 3.8 2.9 1 1.3 1.6 2.7 2.1 4.5.4 1.7.6 3.7.6 5.8v26h-12.1zm54.8-16.6h-23v.5c0 2 .6 3.4 1.8 4.3 1.2.9 2.6 1.4 4.1 1.4 1 0 2.3-.1 3.9-.4 1.6-.3 3.4-1.1 5.4-2.5l6.2 8.1c-1.3 1.2-2.6 2.2-3.9 2.9-1.3.7-2.5 1.3-3.8 1.7-1.3.4-2.5.7-3.8.8-1.3.1-2.5.2-3.8.2-2.3 0-4.6-.3-6.8-.9-2.2-.6-4.1-1.5-5.8-2.7-1.7-1.2-3-2.7-4-4.6-1-1.9-1.5-4.1-1.5-6.6V32.7c0-2.6.5-4.8 1.4-6.7.9-1.9 2.2-3.5 3.8-4.9 1.6-1.3 3.4-2.3 5.5-3 2.1-.7 4.3-1 6.6-1 2.5 0 4.8.3 7 1 2.1.7 4 1.7 5.5 3s2.8 2.9 3.6 4.9c.9 1.9 1.3 4.2 1.3 6.8v7.9zm-11.8-7.8c0-1.6-.6-2.8-1.7-3.7-1.1-.9-2.4-1.3-3.8-1.3-1.5 0-2.8.5-3.9 1.4-1.1.9-1.7 2.2-1.7 3.7v.3h11.1z"/><path fill="#e37863" d="M312.8 2.2c3.1 0 5.7.5 7.9 1.5s4 2.3 5.4 4c1.4 1.7 2.4 3.5 3 5.6.6 2.1 1 4.2 1 6.5 0 2.2-.4 4.4-1.2 6.5-.8 2.1-1.9 3.9-3.4 5.6-1.5 1.7-3.4 3-5.6 4-2.2 1-4.7 1.5-7.5 1.5h-11v20.1h-12.7V2.2zm-11.5 23.7h9.4c2.4 0 4.1-.6 5.1-1.8 1-1.2 1.5-2.7 1.5-4.4 0-1.7-.5-3.2-1.5-4.4-1-1.2-2.7-1.8-5.2-1.8h-9.4v12.4zm76 13.8c0 3-.6 5.7-1.7 7.9s-2.7 4-4.6 5.5c-1.9 1.4-4 2.5-6.4 3.2-2.4.7-4.8 1-7.3 1h-20.8V2.2h20.9c2.8 0 5.4.3 7.9 1 2.4.7 4.5 1.8 6.3 3.2 1.8 1.4 3.2 3.3 4.2 5.4 1 2.2 1.5 4.8 1.5 7.8zm-12.7-17.6c0-1.6-.3-2.9-.8-4s-1.2-2-2-2.6c-.8-.7-1.8-1.2-2.8-1.5-1.1-.3-2.1-.5-3.1-.5h-6.6v32.6h6.6c1 0 2.1-.2 3.1-.5 1.1-.3 2-.8 2.8-1.5.8-.7 1.5-1.6 2-2.7s.8-2.5.8-4.1zm35.2 2.3h22v11.3h-22v21.6h-12.7V2.2h38.5v11.3h-25.8z"/></svg>