<svg xmlns="http://www.w3.org/2000/svg" viewBox="-33.4 0 322.4 71.4" height="71.4" width="322.4"><path fill="#47a4a5" d="M-.6 15.4c-1.8-1.5-3.7-2.6-5.6-3.1-1.9-.5-3.7-.8-5.5-.8-1.1 0-2.1.2-3.2.5s-2 .8-2.9 1.5c-.9.7-1.6 1.5-2.1 2.6-.6 1.1-.8 2.4-.8 4v15.6c0 1.6.3 2.9.8 4 .6 1.1 1.3 2 2.2 2.6.9.7 1.9 1.2 2.9 1.5 1.1.3 2.1.5 3.2.5 1.7 0 3.5-.3 5.3-.8 1.8-.5 3.7-1.5 5.8-3.1l6 9.9c-2.2 1.9-4.9 3.3-7.9 4.2-3 .9-6.1 1.4-9.4 1.4-2.6 0-5.1-.3-7.7-1-2.6-.7-4.9-1.8-7-3.2-2.1-1.4-3.7-3.3-5-5.5-1.3-2.2-1.9-4.8-1.9-7.9V17.8c0-3 .6-5.7 1.9-7.9 1.3-2.2 2.9-4.1 4.9-5.5 2-1.5 4.3-2.6 6.8-3.3C-17.3.4-14.7 0-12.1 0c3.3 0 6.5.5 9.6 1.4 3.1.9 5.8 2.3 8 4.2zm40.9 12c-3.4.3-6.3.8-8.6 1.5s-4.5 1.7-6.6 3v23.6H13.3V15.9h11l.7 5.8h.1c.7-.7 1.6-1.4 2.8-2.2 1.2-.7 2.4-1.4 3.8-2 1.4-.6 2.8-1.1 4.3-1.5 1.5-.4 2.9-.6 4.3-.6zM81 40.6c0 2.5-.4 4.7-1.3 6.6-.9 1.9-2.1 3.5-3.6 4.8-1.6 1.3-3.5 2.3-5.7 2.9-2.2.7-4.6 1-7.2 1-5.6 0-9.9-1.3-13.1-3.9-3.2-2.6-4.8-6.4-4.8-11.5v-9.9c0-2.5.5-4.7 1.4-6.6.9-1.9 2.2-3.5 3.8-4.8 1.6-1.3 3.5-2.3 5.7-2.9 2.2-.7 4.5-1 6.9-1 5.5 0 9.8 1.3 13 4 3.2 2.7 4.8 6.5 4.8 11.6v9.7zm-11.9-9.1c0-2.1-.6-3.5-1.9-4.4-1.3-.9-2.6-1.3-4.1-1.3-1.5 0-2.9.4-4.1 1.3-1.3.9-1.9 2.3-1.9 4.4v8.3c0 2.1.6 3.5 1.9 4.4 1.3.9 2.6 1.3 4.1 1.3 1.4 0 2.8-.4 4.1-1.3 1.3-.9 1.9-2.3 1.9-4.4zm55.5 10.3c0 2.1-.3 4.1-.8 5.8-.6 1.8-1.4 3.3-2.6 4.6-1.1 1.3-2.6 2.3-4.3 3-1.7.7-3.8 1-6.1 1-1.3 0-2.9-.1-4.8-.4-1.9-.3-3.6-.9-5.1-1.9v17.5H89.1V15.9h10.7l.8 3.4c1.8-1.2 3.7-2.1 5.8-2.8 2.1-.7 3.8-1 5.2-1 8.7 0 13.1 4.9 13.1 14.6v11.7zm-11.9-10.5c0-1.9-.4-3.2-1.2-3.9-.8-.7-1.7-1-2.8-1-1.1 0-2.4.3-3.9.8s-2.9 1.2-4 2v13.7c1.5.7 2.8 1.3 3.9 1.6 1.1.3 2.2.4 3.3.4 1.3 0 2.5-.4 3.4-1.1.9-.7 1.4-2 1.4-3.9v-8.6z"/><path fill="#e37863" d="M176.2.5c3.1 0 5.7.5 7.9 1.5s4 2.3 5.4 4c1.4 1.7 2.4 3.5 3 5.6.6 2.1 1 4.2 1 6.5 0 2.2-.4 4.4-1.2 6.5-.8 2.1-1.9 3.9-3.4 5.6-1.5 1.7-3.4 3-5.6 4-2.2 1-4.7 1.5-7.5 1.5h-11v20.1h-12.7V.5zm-11.4 23.7h9.4c2.4 0 4.1-.6 5.1-1.8 1-1.2 1.5-2.7 1.5-4.4 0-1.7-.5-3.2-1.5-4.4-1-1.2-2.7-1.8-5.2-1.8h-9.4v12.4zm76 13.8c0 3-.6 5.7-1.7 7.9s-2.7 4-4.6 5.5c-1.9 1.4-4 2.5-6.4 3.2-2.4.7-4.8 1-7.3 1h-20.9V.5h20.9c2.8 0 5.4.3 7.9 1 2.4.7 4.5 1.8 6.3 3.2 1.8 1.4 3.2 3.3 4.2 5.4 1 2.2 1.5 4.8 1.5 7.8V38zm-12.7-17.6c0-1.6-.3-2.9-.8-4s-1.2-2-2-2.6c-.8-.7-1.8-1.2-2.8-1.5-1.1-.3-2.1-.5-3.1-.5h-6.6v32.6h6.6c1 0 2.1-.2 3.1-.5 1.1-.3 2-.8 2.8-1.5.8-.7 1.5-1.6 2-2.7s.8-2.5.8-4.1zm35.2 2.3h22V34h-22v21.6h-12.8V.5H289v11.3h-25.8v10.9z"/></svg>