<svg xmlns="http://www.w3.org/2000/svg" viewBox="-33.4 0 398.9 55.6" height="55.6" width="398.9"><path fill="#e37863" d="M253.924.413c3.1 0 5.7.5 7.8 1.5 2.2 1 3.9 2.3 5.3 3.9s2.4 3.5 3 5.5c.6 2.1 1 4.2 1 6.4s-.4 4.3-1.1 6.4c-.8 2.1-1.9 3.9-3.4 5.5s-3.3 2.9-5.5 3.9-4.6 1.5-7.4 1.5h-10.9v19.8h-12.6V.413zm-11.2 23.4h9.2c2.4 0 4.1-.6 5.1-1.8 1-1.2 1.5-2.7 1.5-4.4 0-1.7-.5-3.2-1.5-4.4-1-1.2-2.7-1.8-5.1-1.8h-9.2zm75 13.6c0 3-.6 5.6-1.7 7.8s-2.6 4-4.5 5.4c-1.9 1.4-4 2.5-6.3 3.2-2.3.7-4.8 1-7.2 1h-20.7V.413h20.7c2.8 0 5.4.3 7.8 1 2.4.7 4.5 1.7 6.3 3.2 1.8 1.4 3.2 3.2 4.2 5.4s1.5 4.7 1.5 7.7v19.7zm-12.5-17.4c0-1.6-.3-2.9-.8-4s-1.2-1.9-2-2.6c-.8-.7-1.8-1.1-2.8-1.5-1.1-.3-2.1-.5-3.1-.5h-6.6v32.2h6.6c1 0 2-.2 3.1-.5s2-.8 2.8-1.5c.8-.7 1.5-1.5 2-2.6s.8-2.4.8-4zm34.7 2.3h21.7v11.1h-21.7v21.3h-12.6V.413h38v11.1h-25.4z"/><path fill="#556a72" d="M130.7 25v-9.2h4.8l1.8-9.9h9.5v9.9h8.8V25h-8.8v15.2c0 1.9.4 3.1 1.3 3.8.8.6 2.3.9 4.3.9 1.5 0 3.3-.1 5.5-.2l.9 9.4c-1.7.6-3.5 1-5.3 1.2-1.8.2-3.5.3-4.9.3-2.8 0-5-.3-6.8-1-1.7-.7-3-1.6-4-2.7-.9-1.2-1.6-2.5-1.9-4.1-.3-1.6-.5-3.4-.5-5.3V25zm56.5 18.9c-.1.4-.2.8-.4 1.1-.1.3-.3.7-.4 1-.2.5-.6 1.2-1.1 2.2-.5 1-1.2 2-2.1 2.9-.9.9-1.9 1.7-3.2 2.4-1.3.6-2.8.8-4.5.6-2.8-.6-5.2-1.7-7.1-3.2-1.2-.9-2.2-2.1-3-3.6-.2-.4-.4-.8-.6-1.3-.2-.4-.3-.9-.4-1.3V44.4l-.2-.9c-.1-.2-.1-.4-.1-.6 0-.2-.1-.4-.1-.7V41c-.1-.3-.1-.6-.1-.9v-1.3c0-2.4.4-4.6 1.3-6.6.9-1.9 2.1-3.5 3.6-4.7 1.6-1.3 3.4-2.2 5.6-2.9 1.9-.5 4-.8 6.2-.9v-4l9.3 9.3-9.3 9.3V34c-.6.1-1.1.2-1.6.4s-1 .4-1.5.8c-1.3.9-1.9 2.3-1.9 4.3 0 .1 0 .2.1.3 0 .1.1.4.2.8h.1c0 .3.1.5.2.6 0 .1.1.2.2.3v.3c.1.1.2.2.2.3l.2.2.2.2c.2.2.3.3.4.3 1.2.8 2.6 1.3 4.1 1.3 1.5 0 2.8-.4 4-1.3 1.3-.8 1.9-2.2 1.9-4.3v-3.7c.1.4.1 1 .2 1.7s.1 1.6.1 2.4c0 .7 0 1.4-.1 2-.1.6-.1 1.1-.2 1.5 0 .8-.1 1.2-.2 1.5zm-20.5-18.8c-1.1.8-2 1.8-2.8 3 .2-1.7.6-3.3 1.3-4.9.4-.9 1-1.8 1.6-2.6.7-.8 1.4-1.5 2.2-2.1 1.5-1.2 3.4-2.2 5.6-2.9.5-.1.9-.2 1.4-.3.4-.1.9-.2 1.4-.3v5.9c-1.5.2-2.9.4-4 .8-2.6.7-4.8 1.8-6.7 3.4zm27.6-6.6c3.2 2.6 4.7 6.5 4.7 11.5v9.6c0 1.3-.1 2.4-.3 3.5-.2 1.1-.5 2.1-.9 3-.9 1.9-2.1 3.5-3.6 4.7-1.6 1.3-3.5 2.3-5.6 2.9-.8.3-1.7.5-2.6.6-.9.1-1.8.3-2.8.4.6-.5 1.1-1 1.6-1.5s.9-1 1.3-1.6c1.6-2.1 2.6-4.3 2.9-6.8.1-.4.2-.9.2-1.3.1-.5.1-.9.1-1.4 0-.2 0-.8-.1-1.8s-.3-2.2-.6-3.7c-.1-.3-.2-.5-.2-.8-.1-.2-.1-.5-.2-.8l6-6-14.5-14.4c.3-.1.5-.1.8-.1h.8c5.5.1 9.8 1.4 13 4z"/><path fill="#47a4a5" d="M7.387 37.6c0 3-.6 5.6-1.7 7.8s-2.6 4-4.5 5.4c-1.9 1.4-4 2.5-6.3 3.2-2.4.7-4.8 1-7.2 1h-20.7V.6h20.7c2.8 0 5.4.3 7.8 1 2.4.7 4.5 1.7 6.3 3.2 1.8 1.4 3.2 3.2 4.2 5.4s1.5 4.7 1.5 7.7v19.7zm-12.6-17.4c0-1.6-.3-2.9-.8-4s-1.2-1.9-2-2.6c-.8-.7-1.8-1.1-2.8-1.5-1.1-.3-2.1-.5-3.1-.5h-6.6v32.2h6.6c1 0 2-.2 3.1-.5s2-.8 2.8-1.5c.8-.7 1.5-1.5 2-2.6s.8-2.4.8-4zm64.4 17.6c0 3-.6 5.6-1.7 7.8s-2.7 4.1-4.7 5.5c-1.9 1.5-4.2 2.6-6.8 3.3-2.6.7-5.3 1.1-8.1 1.1s-5.5-.4-8.1-1.1c-2.5-.7-4.8-1.8-6.8-3.3-2-1.5-3.5-3.3-4.7-5.5-1.2-2.2-1.7-4.8-1.7-7.8V17.3c0-3 .6-5.6 1.9-7.7 1.3-2.2 2.9-4 4.9-5.4 2-1.4 4.3-2.5 6.8-3.2 2.5-.7 5.1-1 7.6-1 2.6 0 5.1.4 7.7 1.1 2.5.7 4.8 1.8 6.9 3.3 2 1.4 3.7 3.3 4.9 5.5 1.2 2.2 1.9 4.8 1.9 7.8zm-12.6-17.7c0-1.6-.3-2.9-.8-4s-1.2-1.9-2-2.6c-.8-.7-1.8-1.1-2.8-1.5-1.1-.3-2.1-.5-3.1-.5-1.1 0-2.1.2-3.1.5s-2 .8-2.8 1.5c-.8.7-1.5 1.5-2.1 2.6-.5 1.1-.8 2.4-.8 4v15.4c0 1.6.3 2.9.8 4s1.2 1.9 2.1 2.6c.8.7 1.8 1.1 2.8 1.5 1 .3 2.1.5 3.1.5s2-.2 3.1-.5 2-.8 2.8-1.5c.8-.7 1.5-1.5 2-2.6s.8-2.4.8-4zm55-4.8c-1.8-1.5-3.6-2.5-5.5-3s-3.7-.8-5.4-.8c-1.1 0-2.1.2-3.2.5s-2 .8-2.8 1.5c-.8.7-1.5 1.5-2.1 2.6-.6 1.1-.8 2.4-.8 4v15.4c0 1.6.3 2.9.8 4 .6 1.1 1.3 1.9 2.1 2.6.9.7 1.8 1.1 2.9 1.5 1.1.3 2.1.5 3.2.5 1.7 0 3.4-.3 5.2-.8 1.8-.5 3.7-1.5 5.7-3l5.9 9.8c-2.2 1.8-4.8 3.2-7.8 4.1-3 .9-6.1 1.4-9.3 1.4-2.5 0-5.1-.3-7.6-1-2.6-.7-4.8-1.7-6.9-3.2-2.1-1.5-3.7-3.2-4.9-5.4-1.3-2.2-1.9-4.8-1.9-7.8V17.6c0-3 .6-5.6 1.9-7.8 1.2-2.2 2.9-4 4.9-5.5 2-1.4 4.3-2.5 6.8-3.2 2.5-.7 5-1.1 7.6-1.1 3.2 0 6.4.4 9.5 1.3 3.1.9 5.7 2.3 7.9 4.2z"/></svg>