<svg xmlns="http://www.w3.org/2000/svg" height="61.1" width="480.9"><path d="M20.2.4c2.6 0 4.8.4 6.7 1.2 1.8.8 3.4 1.9 4.5 3.4 1.1 1.3 2 2.9 2.6 4.7s.8 3.6.8 5.5-.3 3.7-1 5.5c-.7 1.8-1.6 3.4-2.9 4.7-1.2 1.3-2.8 2.5-4.7 3.4-1.8.8-3.9 1.2-6.4 1.2h-9.1v16.9H0V.4h20.2zm-9.6 20h7.8c2 0 3.5-.6 4.3-1.6.9-1 1.2-2.2 1.2-3.7s-.4-2.7-1.2-3.7c-.8-1-2.2-1.6-4.4-1.6h-7.8v10.5h.1zm63.9 11.5c0 2.6-.4 4.8-1.5 6.6-1 1.9-2.2 3.4-3.8 4.6-1.6 1.2-3.4 2.1-5.4 2.7-2 .6-4 .9-6 .9H40.1V.4h17.6c2.4 0 4.6.3 6.6.9 2 .6 3.8 1.5 5.4 2.7 1.6 1.2 2.7 2.7 3.6 4.6.9 1.8 1.2 4 1.2 6.6v16.7zM63.7 17.1c0-1.3-.2-2.5-.7-3.4-.4-.9-1-1.7-1.7-2.2-.7-.6-1.5-1-2.4-1.2-.9-.2-1.8-.4-2.6-.4h-5.6v27.3h5.6c.9 0 1.7-.1 2.6-.4.9-.2 1.7-.7 2.4-1.2s1.2-1.3 1.7-2.2c.4-.9.7-2.1.7-3.5V17.1zM93.3 19h18.5v9.5H93.3v18.1H82.6V.4H115V10H93.3v9z" fill="#E37863"/><path d="M154.1 13c-1.6-1.3-3.1-2.1-4.7-2.6-1.6-.4-3.1-.7-4.6-.7-.9 0-1.8.1-2.7.4-.9.2-1.7.7-2.5 1.2-.7.6-1.3 1.3-1.8 2.2-.4.9-.7 2-.7 3.4V30c0 1.3.2 2.5.7 3.4.4.9 1.1 1.7 1.8 2.2.8.6 1.6 1 2.5 1.2.9.2 1.8.4 2.7.4 1.5 0 2.9-.2 4.5-.7 1.6-.4 3.1-1.2 4.8-2.6l5 8.3c-1.9 1.6-4.1 2.8-6.6 3.5-2.6.8-5.2 1.1-7.9 1.1-2.1 0-4.4-.3-6.5-.9-2.1-.6-4.1-1.5-5.8-2.7-1.7-1.2-3.1-2.7-4.3-4.6-1.1-1.9-1.6-4-1.6-6.6V14.9c0-2.6.6-4.8 1.6-6.6 1-1.9 2.5-3.4 4.1-4.6 1.7-1.2 3.6-2.1 5.7-2.8 2.1-.6 4.3-.9 6.5-.9 2.7 0 5.4.3 8.1 1.1s4.9 1.9 6.7 3.6l-5 8.3zm40.6 21.2c0 2.1-.3 3.9-1.1 5.6-.7 1.6-1.8 2.9-3 4-1.3 1.1-2.9 1.9-4.7 2.5-1.8.6-3.8.9-6 .9-4.7 0-8.3-1.1-11-3.2-2.7-2.1-4-5.4-4-9.6V26c0-2.1.4-3.9 1.2-5.6.8-1.6 1.9-2.9 3.2-4 1.3-1.1 2.9-1.9 4.8-2.5 1.8-.6 3.8-.9 5.8-.9 4.6 0 8.3 1.1 11 3.4 2.7 2.2 4 5.5 4 9.7v8.1h-.2zm-10-7.8c0-1.8-.6-3-1.6-3.7-1.1-.7-2.2-1.1-3.4-1.1-1.2 0-2.4.3-3.5 1.1-1.1.7-1.6 1.9-1.6 3.7v6.9c0 1.8.6 3 1.6 3.7 1.1.7 2.2 1.1 3.5 1.1s2.4-.3 3.4-1.1c1.1-.7 1.6-1.9 1.6-3.7v-6.9zm54.7 20.3V26.4c0-1.6-.3-2.6-1-3.1-.7-.6-1.3-.8-2.1-.8-.9 0-1.8.2-2.6.4s-1.9 1-3.4 2v21.8h-10V26.4c0-1.6-.3-2.6-1-3.1s-1.3-.8-2.1-.8c-.9 0-1.8.2-2.6.4s-2 1-3.4 2v21.8h-10V13.3h8.8l.7 2.7c1.1-.7 2.1-1.2 3-1.7.9-.4 1.7-.7 2.5-.9.8-.2 1.5-.3 2-.4.6-.1 1.1-.1 1.7-.1 2 0 3.8.3 5.2 1.1 1.3.8 2.5 1.8 3.1 3.1 1.5-1 2.7-1.8 3.8-2.4 1.1-.6 2-1 2.9-1.2.9-.3 1.6-.4 2.2-.6.7-.1 1.2-.1 1.8-.1 1.9 0 3.6.3 4.8 1 1.3.7 2.4 1.6 3.1 2.7.8 1.1 1.3 2.5 1.7 4s.4 3.2.4 5v21c.2.2-9.5.2-9.5.2zm47-11.7c0 1.8-.2 3.5-.7 4.9-.4 1.5-1.2 2.8-2.1 3.8-1 1.1-2.1 1.9-3.6 2.5-1.5.6-3.1.9-5.2.9-1.1 0-2.5-.1-4-.3-1.6-.2-3-.8-4.4-1.6V60h-10V13.3h9l.7 2.9c1.6-1 3.1-1.8 4.9-2.4 1.8-.6 3.2-.9 4.4-.9 7.3 0 11 4.1 11 12.3V35zm-10-8.8c0-1.6-.3-2.7-1-3.2-.7-.6-1.5-.8-2.4-.8-.9 0-2 .2-3.2.7-1.2.4-2.5 1-3.4 1.7v11.5c1.2.7 2.4 1 3.2 1.3.9.2 1.9.3 2.8.3 1.1 0 2-.3 2.8-.9.8-.7 1.1-1.7 1.1-3.2v-7.4zm39.9-3.1c-2.9.2-5.3.7-7.2 1.2s-3.8 1.5-5.6 2.6v19.8h-10V13.3h9.3l.6 4.9h.1c.6-.6 1.3-1.2 2.4-1.8 1-.7 2-1.2 3.1-1.7 1.1-.6 2.4-.9 3.6-1.2 1.2-.3 2.5-.6 3.6-.6V23h.1zm33.7 9.7h-19.3v.4c0 1.7.6 2.9 1.5 3.6 1 .8 2.1 1.1 3.5 1.1.8 0 1.9-.1 3.2-.3 1.3-.2 2.9-.9 4.6-2.1l5.3 6.8c-1.1 1-2.2 1.8-3.2 2.5-1 .6-2.1 1.1-3.1 1.5-1 .3-2.1.6-3.1.7-1 .1-2.1.1-3.2.1-2 0-3.9-.2-5.7-.8-1.8-.4-3.5-1.2-4.8-2.2-1.3-1-2.5-2.2-3.4-3.8-.8-1.6-1.2-3.4-1.2-5.5v-8.6c0-2.1.3-4 1.1-5.6s1.9-3 3.1-4.1c1.3-1.1 2.9-1.9 4.6-2.6 1.8-.6 3.6-.9 5.6-.9 2.1 0 4 .3 5.8.9 1.8.6 3.4 1.5 4.6 2.6 1.3 1.1 2.4 2.5 3 4.1.8 1.7 1.1 3.6 1.1 5.7v6.6zm-9.8-6.6c0-1.3-.4-2.4-1.5-3.1-.9-.7-2-1.1-3.2-1.1s-2.4.4-3.2 1.1c-1 .8-1.5 1.8-1.5 3.1v.2h9.3v-.2h.1zM369.6 47c-1.1 0-2.2 0-3.5-.1-1.1-.1-2.4-.3-3.6-.7-1.2-.3-2.5-.9-3.8-1.5-1.2-.7-2.6-1.6-3.8-2.8l5.3-7.1c1.7 1.3 3.2 2.4 4.6 2.8 1.3.6 2.8.8 4.4.8 1.5 0 2.6-.2 3.2-.7.8-.4 1.1-.9 1.1-1.6 0-.6-.2-1-.6-1.5-.3-.4-1.3-.8-2.8-1-1.5-.2-2.9-.6-4.5-.9-1.6-.3-3-.9-4.4-1.6-1.3-.7-2.5-1.7-3.4-2.8-.9-1.1-1.3-2.7-1.3-4.7 0-1.8.3-3.5 1.1-4.8.8-1.3 1.7-2.5 2.9-3.4 1.2-.9 2.6-1.6 4-2 1.5-.4 3-.7 4.6-.7 2.5 0 4.8.2 6.9.7 2.1.4 4.4 1.6 6.7 3.2l-4.6 7.5c-1.8-1.2-3.4-2-4.8-2.2-1.3-.3-2.7-.4-3.9-.4-1.2 0-2.1.2-2.6.6-.4.4-.7.8-.7 1.2 0 .7.4 1.1 1.3 1.5.9.3 1.9.6 3.2.8 1.2.2 2.7.4 4.3.8s2.9.8 4.3 1.6c1.2.7 2.4 1.7 3.2 2.9.9 1.2 1.3 3 1.3 5 0 1.8-.4 3.4-1.1 4.7-.8 1.3-1.8 2.5-3.1 3.4-1.3.9-2.8 1.6-4.6 2-1.7.8-3.5 1-5.3 1zm32.5 0c-1.1 0-2.2 0-3.5-.1-1.1-.1-2.4-.3-3.6-.7-1.2-.3-2.5-.9-3.8-1.5-1.2-.7-2.6-1.6-3.8-2.8l5.3-7.1c1.7 1.3 3.2 2.4 4.6 2.8 1.3.6 2.8.8 4.4.8 1.5 0 2.6-.2 3.2-.7.8-.4 1.1-.9 1.1-1.6 0-.6-.2-1-.6-1.5-.3-.4-1.3-.8-2.8-1-1.5-.2-2.9-.6-4.5-.9-1.6-.3-3-.9-4.4-1.6-1.3-.7-2.5-1.7-3.4-2.8-.9-1.1-1.3-2.7-1.3-4.7 0-1.8.3-3.5 1.1-4.8.8-1.3 1.7-2.5 2.9-3.4 1.2-.9 2.6-1.6 4-2 1.5-.4 3-.7 4.6-.7 2.5 0 4.8.2 6.9.7 2.1.4 4.4 1.6 6.7 3.2l-4.6 7.5c-1.8-1.2-3.4-2-4.8-2.2-1.3-.3-2.7-.4-3.9-.4s-2.1.2-2.6.6c-.4.4-.7.8-.7 1.2 0 .7.4 1.1 1.3 1.5.9.3 1.9.6 3.2.8 1.2.2 2.7.4 4.3.8s2.9.8 4.3 1.6c1.2.7 2.4 1.7 3.2 2.9.9 1.2 1.3 3 1.3 5 0 1.8-.4 3.4-1.1 4.7-.8 1.3-1.8 2.5-3.1 3.4-1.3.9-2.8 1.6-4.6 2-1.6.8-3.4 1-5.3 1zm49-12.8c0 2.1-.3 3.9-1.1 5.6-.7 1.6-1.8 2.9-3 4-1.3 1.1-2.9 1.9-4.7 2.5-1.8.6-3.8.9-6 .9-4.7 0-8.3-1.1-11-3.2-2.7-2.1-4-5.4-4-9.6V26c0-2.1.4-3.9 1.2-5.6.8-1.6 1.9-2.9 3.2-4 1.3-1.1 2.9-1.9 4.8-2.5 1.8-.6 3.8-.9 5.8-.9 4.6 0 8.3 1.1 11 3.4 2.7 2.2 4 5.5 4 9.7v8.1h-.2zm-9.9-7.8c0-1.8-.6-3-1.6-3.7-1.1-.7-2.2-1.1-3.4-1.1-1.2 0-2.4.3-3.5 1.1-1.1.7-1.6 1.9-1.6 3.7v6.9c0 1.8.6 3 1.6 3.7 1.1.7 2.2 1.1 3.5 1.1s2.4-.3 3.4-1.1c1.1-.7 1.6-1.9 1.6-3.7v-6.9zm39.7-3.3c-2.9.2-5.3.7-7.2 1.2-1.9.6-3.8 1.5-5.6 2.6v19.8h-10V13.3h9.3l.6 4.9h.1c.6-.6 1.3-1.2 2.4-1.8 1-.7 2-1.2 3.1-1.7 1.1-.6 2.4-.9 3.6-1.2 1.2-.3 2.5-.6 3.6-.6V23h.1z" fill="#47A4A5"/></svg>