<svg xmlns="http://www.w3.org/2000/svg" viewBox="-33.4 0 443.6 70.7" height="70.7" width="443.6"><path fill="#e37863" d="M-9.5 0c3.1 0 5.7.5 7.8 1.5 2.2 1 3.9 2.3 5.3 3.9s2.4 3.5 3 5.5c.6 2.1 1 4.2 1 6.4s-.4 4.3-1.1 6.4c-.8 2.1-1.9 3.9-3.4 5.5s-3.3 2.9-5.5 3.9-4.6 1.5-7.4 1.5h-11v19.8h-12.6V0zm-11.3 23.4h9.2c2.4 0 4.1-.6 5.1-1.8 1-1.2 1.5-2.7 1.5-4.4 0-1.7-.5-3.2-1.5-4.4-1-1.2-2.7-1.8-5.1-1.8h-9.2zM54.3 37c0 3-.6 5.6-1.7 7.8s-2.6 4-4.5 5.4c-1.9 1.4-4 2.5-6.3 3.2-2.3.7-4.8 1-7.2 1H13.9V0h20.7c2.8 0 5.4.3 7.8 1 2.4.7 4.5 1.7 6.3 3.2 1.8 1.4 3.2 3.2 4.2 5.4s1.5 4.7 1.5 7.7V37zM41.7 19.6c0-1.6-.3-2.9-.8-4s-1.2-1.9-2-2.6c-.8-.7-1.8-1.1-2.8-1.5C35 11.2 34 11 33 11h-6.6v32.2H33c1 0 2-.2 3.1-.5s2-.8 2.8-1.5c.8-.7 1.5-1.5 2-2.6s.8-2.4.8-4zm34.8 2.3h21.7V33H76.5v21.3H63.9V0h38v11.1H76.5z"/><path fill="#556a72" d="M116.3 24.4v-9.2h4.8l1.8-9.9h9.5v9.9h8.8v9.2h-8.8v15.2c0 1.9.4 3.1 1.3 3.8.8.6 2.3.9 4.3.9 1.5 0 3.3-.1 5.5-.2l.9 9.4c-1.7.6-3.5 1-5.3 1.2-1.8.2-3.5.3-4.9.3-2.8 0-5-.3-6.8-1-1.7-.7-3-1.6-4-2.7-.9-1.2-1.6-2.5-1.9-4.1-.3-1.6-.5-3.4-.5-5.3V24.4zm56.6 18.9c-.1.4-.2.8-.4 1.1-.1.3-.3.7-.4 1-.2.5-.6 1.2-1.1 2.2-.5 1-1.2 2-2.1 2.9-.9.9-1.9 1.7-3.2 2.4-1.3.6-2.8.8-4.5.6-2.8-.6-5.2-1.7-7.1-3.2-1.2-.9-2.2-2.1-3-3.6-.2-.4-.4-.8-.6-1.3-.2-.4-.3-.9-.4-1.3V43.8l-.2-.9c-.1-.2-.1-.4-.1-.6 0-.2-.1-.4-.1-.7v-1.2c-.1-.3-.1-.6-.1-.9v-1.3c0-2.4.4-4.6 1.3-6.6.9-1.9 2.1-3.5 3.6-4.7 1.6-1.3 3.4-2.2 5.6-2.9 1.9-.5 4-.8 6.2-.9v-4l9.3 9.3-9.3 9.3v-4.3c-.6.1-1.1.2-1.6.4s-1 .4-1.5.8c-1.3.9-1.9 2.3-1.9 4.3 0 .1 0 .2.1.3 0 .1.1.4.2.8h.1c0 .3.1.5.2.6 0 .1.1.2.2.3v.3c.1.1.2.2.2.3l.2.2.2.2c.2.2.3.3.4.3 1.2.8 2.6 1.3 4.1 1.3 1.5 0 2.8-.4 4-1.3 1.3-.8 1.9-2.2 1.9-4.3v-3.7c.1.4.1 1 .2 1.7s.1 1.6.1 2.4c0 .7 0 1.4-.1 2-.1.6-.1 1.1-.2 1.5-.1.8-.2 1.2-.2 1.5zm-20.6-18.8c-1.1.8-2 1.8-2.8 3 .2-1.7.6-3.3 1.3-4.9.4-.9 1-1.8 1.6-2.6.7-.8 1.4-1.5 2.2-2.1 1.5-1.2 3.4-2.2 5.6-2.9.5-.1.9-.2 1.4-.3.4-.1.9-.2 1.4-.3v5.9c-1.5.2-2.9.4-4 .8-2.5.7-4.7 1.8-6.7 3.4zm27.7-6.6c3.2 2.6 4.7 6.5 4.7 11.5V39c0 1.3-.1 2.4-.3 3.5-.2 1.1-.5 2.1-.9 3-.9 1.9-2.1 3.5-3.6 4.7-1.6 1.3-3.5 2.3-5.6 2.9-.8.3-1.7.5-2.6.6-.9.1-1.8.3-2.8.4.6-.5 1.1-1 1.6-1.5s.9-1 1.3-1.6c1.6-2.1 2.6-4.3 2.9-6.8.1-.4.2-.9.2-1.3.1-.5.1-.9.1-1.4 0-.2 0-.8-.1-1.8s-.3-2.2-.6-3.7c-.1-.3-.2-.5-.2-.8-.1-.2-.1-.5-.2-.8l6-6L165.4 14c.3-.1.5-.1.8-.1h.8c5.5.1 9.8 1.4 13 4z"/><path fill="#47a4a5" d="M213.3 0v54.4h-12.6V0zm55.9 54.4V30.5c0-1.8-.4-3.1-1.2-3.7-.8-.7-1.6-1-2.5-1-1.1 0-2.1.2-3.1.6-1 .4-2.3 1.2-3.9 2.3v25.7h-11.7V30.5c0-1.8-.4-3.1-1.1-3.7-.7-.6-1.6-1-2.5-1-1.1 0-2.1.2-3.1.6-1 .4-2.3 1.2-4 2.3v25.7h-11.7V15.2h10.5l.8 3.1c1.3-.8 2.5-1.5 3.5-2 1.1-.5 2-.8 2.9-1.1.9-.2 1.7-.4 2.4-.5.7-.1 1.4-.1 2-.1 2.4 0 4.4.4 6 1.3 1.6.9 2.9 2.1 3.7 3.6 1.7-1.2 3.2-2.1 4.4-2.7 1.3-.7 2.4-1.2 3.4-1.5 1-.3 1.9-.6 2.6-.6.8-.1 1.5-.1 2.1-.1 2.3 0 4.2.4 5.7 1.2 1.5.8 2.8 1.9 3.7 3.2.9 1.3 1.6 2.9 2 4.7.4 1.8.6 3.8.6 5.9v24.7h-11.5zm43.1-3c-2.1 1.2-4 2.1-5.9 2.6-1.9.5-3.6.8-5.3.8-4.1 0-7.2-1.1-9.4-3.2s-3.2-5.1-3.2-8.8c0-2.2.4-4 1.3-5.5s2-2.7 3.4-3.7c1.4-.9 2.9-1.6 4.6-2.1 1.7-.4 3.3-.7 5-.7h9.5v-1c0-1.4-.4-2.5-1.3-3.4-.8-.9-2.6-1.3-5.1-1.3-1.3 0-2.8.2-4.6.5-1.8.3-3.6 1.3-5.5 2.7l-5.1-8.4c2.8-2.2 5.7-3.6 8.5-4.3 2.8-.6 5.4-.9 7.9-.9 5.8 0 10 1.3 12.8 3.9 2.7 2.6 4.1 6.6 4.1 12v23.7h-10.7l-.7-2.9zm.1-12.4h-7.5c-1 0-1.9.2-2.6.6-.7.4-1.1 1.1-1.1 2.2 0 .6.2 1.2.8 1.7.5.5 1.4.8 2.6.8 1.6 0 3.1-.2 4.5-.7 1.4-.5 2.5-.9 3.2-1.4V39zm54.8 17.5c0 2.5-.6 4.6-1.8 6.4-1.2 1.8-2.7 3.3-4.6 4.4-1.8 1.2-3.9 2-6 2.6-2.2.6-4.3.8-6.2.8-1.3 0-2.6-.1-4.1-.3-1.4-.2-2.9-.5-4.3-1.1-1.4-.5-2.8-1.2-4.2-2.1-1.4-.9-2.7-2-3.8-3.4l7.5-7.5c.6.8 1.4 1.4 2.2 1.9.8.5 1.7.8 2.5 1.1.8.3 1.6.4 2.4.5.8.1 1.4.1 1.9.1 2 0 3.7-.4 5-1.2 1.3-.8 2-2.3 2-4.4v-3.4c-2.2 1.3-4.2 2.1-6 2.6-1.9.5-3.5.7-4.8.7-2.3 0-4.3-.3-5.9-1-1.6-.7-2.9-1.7-3.9-2.9-1-1.3-1.8-2.8-2.2-4.5-.4-1.7-.7-3.7-.7-5.8V29.3c0-4.7 1.1-8.3 3.4-10.8s5.5-3.8 9.8-3.8c1.4 0 3 .3 4.8.8 1.8.5 3.7 1.4 5.5 2.6l.8-2.9h10.9v41.3zm-23.5-18.2c0 1.8.4 3.1 1.2 3.7.8.7 1.7 1 2.8 1 1.1 0 2.3-.3 3.7-.8 1.4-.6 2.8-1.3 4.2-2.2V28.3c-1.1-.7-2.3-1.4-3.8-1.9-1.5-.6-2.8-.8-4.1-.8-1.1 0-2 .4-2.8 1.1-.8.7-1.2 2-1.2 3.7zm66.2-.3h-22.7v.5c0 1.9.6 3.4 1.8 4.3 1.2.9 2.5 1.3 4.1 1.3.9 0 2.2-.1 3.8-.4 1.6-.3 3.4-1.1 5.3-2.4l6.2 8c-1.3 1.2-2.6 2.2-3.8 2.9-1.2.7-2.5 1.3-3.7 1.7-1.2.4-2.5.7-3.7.8-1.2.1-2.5.2-3.8.2-2.3 0-4.6-.3-6.7-.9-2.2-.6-4.1-1.5-5.7-2.6-1.6-1.2-3-2.7-3.9-4.5-1-1.8-1.5-4-1.5-6.5V30.1c0-2.5.5-4.7 1.4-6.6.9-1.9 2.2-3.5 3.8-4.8 1.6-1.3 3.4-2.3 5.5-3 2.1-.7 4.2-1 6.6-1 2.5 0 4.8.3 6.9 1 2.1.7 3.9 1.7 5.5 3 1.5 1.3 2.7 2.9 3.6 4.8.9 1.9 1.3 4.1 1.3 6.7V38zm-11.7-7.7c0-1.6-.5-2.8-1.6-3.6-1.1-.8-2.4-1.3-3.8-1.3-1.5 0-2.8.5-3.9 1.4-1.1.9-1.7 2.1-1.7 3.7v.3h11z"/></svg>